<svg width="19" height="28" fill="none" xmlns="http://www.w3.org/2000/svg"><path d="M9.138 0C4.099 0 0 4.098 0 9.134v9.147c0 5.036 4.1 9.133 9.138 9.133 5.039 0 9.138-4.097 9.138-9.133V9.134c0-5.037-4.1-9.134-9.138-9.134zm8.123 18.281c0 4.476-3.644 8.118-8.123 8.118-4.479 0-8.123-3.642-8.123-8.118V9.134c0-4.477 3.644-8.119 8.123-8.119 4.479 0 8.123 3.642 8.123 8.119v9.147z" fill="#000"/><path d="M9.138 3.046a.508.508 0 0 0-.508.508V8.15a.508.508 0 1 0 1.016 0V3.554a.508.508 0 0 0-.508-.508z" fill="#008F39"/></svg>