<svg width="33" height="42" fill="none" xmlns="http://www.w3.org/2000/svg"><path d="M22.69 0H0v42h32.9V10.21L22.69 0zm.41 2.39l7.41 7.41H23.1V2.39zM1.4 40.6V1.4h20.3v9.8h9.8v29.4H1.4z" fill="#000"/><path d="M25.2 14.7H14a.7.7 0 1 0 0 1.4h11.2a.7.7 0 1 0 0-1.4zm-13.737-1.947l-3.011 2.41-.957-.958a.7.7 0 1 0-.99.99l1.4 1.4a.699.699 0 0 0 .932.052l3.5-2.8a.7.7 0 0 0-.874-1.094zM25.2 22.4H14a.7.7 0 1 0 0 1.4h11.2a.7.7 0 1 0 0-1.4zm-13.737-1.947l-3.011 2.409-.957-.957a.7.7 0 1 0-.99.99l1.4 1.4a.699.699 0 0 0 .932.052l3.5-2.8a.7.7 0 0 0-.874-1.094zM25.2 30.1H14a.7.7 0 1 0 0 1.4h11.2a.7.7 0 1 0 0-1.4zm-13.737-1.947l-3.011 2.409-.957-.957a.7.7 0 1 0-.99.99l1.4 1.4a.699.699 0 0 0 .932.052l3.5-2.8a.7.7 0 0 0-.874-1.094z" fill="#000"/></svg>